<svg xmlns="http://www.w3.org/2000/svg" xmlns:xlink="http://www.w3.org/1999/xlink" width="500" zoomAndPan="magnify" viewBox="0 0 375 374.999991" height="500" preserveAspectRatio="xMidYMid meet" version="1.0"><defs><g/></defs><g fill="rgb(0%, 0%, 0%)" fill-opacity="1"><g transform="translate(0.882404, 275.732041)"><g><path d="M 175.839844 -3.359375 L 90.71875 -222.316406 C 89.878906 -224.558594 85.960938 -224.558594 85.121094 -222.316406 L 0.28125 -3.359375 C -0.558594 -1.679688 0.558594 0 3.078125 0 L 41.441406 0 C 42.558594 0 43.960938 -0.558594 44.238281 -1.679688 L 87.917969 -126.558594 L 132.160156 -1.679688 C 132.4375 -0.558594 133.839844 0 134.679688 0 L 173.320312 0 C 175.277344 0 176.679688 -1.679688 175.839844 -3.359375 Z M 175.839844 -3.359375 "/></g></g></g><g fill="rgb(0%, 0%, 0%)" fill-opacity="1"><g transform="translate(185.680427, 275.732041)"><g><path d="M 178.636719 -4.199219 L 88.757812 -110.039062 L 177.796875 -219.796875 C 179.757812 -221.757812 178.359375 -223.996094 175.277344 -223.996094 L 129.640625 -223.996094 C 129.078125 -223.996094 127.398438 -223.4375 127.117188 -223.15625 L 42.839844 -119.558594 L 42.839844 -221.476562 C 42.839844 -222.597656 41.71875 -223.996094 40.039062 -223.996094 L 3.078125 -223.996094 C 1.398438 -223.996094 0 -222.597656 0 -221.476562 L 0 -13.71875 C 0 -13.71875 54.597656 -75.597656 60.199219 -81.480469 L 125.4375 -0.839844 C 125.71875 -0.558594 127.398438 0 127.957031 0 L 176.117188 0 C 178.917969 0 180.320312 -1.960938 178.636719 -4.199219 Z M 178.636719 -4.199219 "/></g></g></g></svg>