<svg xmlns="http://www.w3.org/2000/svg" xmlns:xlink="http://www.w3.org/1999/xlink" width="500" zoomAndPan="magnify" viewBox="0 0 375 374.999991" height="500" preserveAspectRatio="xMidYMid meet" version="1.0"><defs><g/></defs><g fill="rgb(0%, 0%, 0%)" fill-opacity="1"><g transform="translate(34.202617, 301.87498)"><g><path d="M 144.4375 -2.761719 L 74.519531 -182.617188 C 73.828125 -184.457031 70.609375 -184.457031 69.917969 -182.617188 L 0.230469 -2.761719 C -0.460938 -1.378906 0.460938 0 2.53125 0 L 34.039062 0 C 34.960938 0 36.109375 -0.460938 36.339844 -1.378906 L 72.21875 -103.957031 L 108.558594 -1.378906 C 108.789062 -0.460938 109.9375 0 110.628906 0 L 142.367188 0 C 143.976562 0 145.125 -1.378906 144.4375 -2.761719 Z M 144.4375 -2.761719 "/></g></g></g><g fill="rgb(0%, 0%, 0%)" fill-opacity="1"><g transform="translate(185.999052, 301.87498)"><g><path d="M 146.738281 -3.449219 L 72.910156 -90.386719 L 146.046875 -180.546875 C 147.65625 -182.15625 146.507812 -183.996094 143.976562 -183.996094 L 106.488281 -183.996094 C 106.027344 -183.996094 104.648438 -183.535156 104.417969 -183.304688 L 35.1875 -98.207031 L 35.1875 -181.925781 C 35.1875 -182.847656 34.269531 -183.996094 32.890625 -183.996094 L 2.53125 -183.996094 C 1.148438 -183.996094 0 -182.847656 0 -181.925781 L 0 -11.269531 C 0 -11.269531 44.847656 -62.097656 49.449219 -66.929688 L 103.039062 -0.691406 C 103.269531 -0.460938 104.648438 0 105.109375 0 L 144.667969 0 C 146.96875 0 148.117188 -1.609375 146.738281 -3.449219 Z M 146.738281 -3.449219 "/></g></g></g></svg>