<svg xmlns="http://www.w3.org/2000/svg" xmlns:xlink="http://www.w3.org/1999/xlink" width="500" zoomAndPan="magnify" viewBox="0 0 375 374.999991" height="500" preserveAspectRatio="xMidYMid meet" version="1.0"><defs><g><g id="id1"/><g id="id2"/></g></defs><g fill="rgb(12.159729%, 12.939453%, 13.328552%)" fill-opacity="1"><g transform="translate(98.047829, 296.917025)"><g><path d="M 161.015625 -23.859375 C 165.554688 -12.117188 172.085938 -6.0625 180.609375 -5.6875 L 180.609375 0 C 173.035156 -0.570312 162.910156 -0.859375 150.234375 -0.859375 C 133.953125 -0.859375 121.832031 -0.570312 113.875 0 L 113.875 -5.6875 C 121.070312 -6.0625 126.234375 -6.957031 129.359375 -8.375 C 132.484375 -9.789062 134.046875 -12.394531 134.046875 -16.1875 C 134.046875 -19.40625 132.910156 -23.851562 130.640625 -29.53125 L 113.3125 -76.109375 L 44.578125 -76.109375 L 32.9375 -46 C 29.15625 -35.78125 27.265625 -28.019531 27.265625 -22.71875 C 27.265625 -16.851562 29.296875 -12.59375 33.359375 -9.9375 C 37.429688 -7.289062 43.632812 -5.875 51.96875 -5.6875 L 51.96875 0 C 41.175781 -0.570312 30.289062 -0.859375 19.3125 -0.859375 C 10.789062 -0.859375 3.691406 -0.570312 -1.984375 0 L -1.984375 -5.6875 C 7.484375 -7.957031 14.960938 -16.191406 20.453125 -30.390625 L 87.1875 -202.484375 L 91.734375 -202.484375 Z M 111.03125 -81.78125 L 79.234375 -166.703125 L 46.859375 -81.78125 Z M 111.03125 -81.78125 "/></g></g></g><path fill="rgb(100%, 100%, 100%)" d="M 56.140625 170.535156 L 318.589844 170.535156 L 318.589844 204.285156 L 56.140625 204.285156 L 56.140625 170.535156 " fill-opacity="1" fill-rule="nonzero"/><g fill="rgb(12.159729%, 12.939453%, 13.328552%)" fill-opacity="1"><g transform="translate(149.719126, 192.113279)"><g><path d="M 0 0 L 0 -0.125 L 0.375 -0.125 C 0.65625 -0.125 0.875 -0.195312 1.03125 -0.34375 C 1.195312 -0.5 1.34375 -0.765625 1.46875 -1.140625 L 4.3125 -9.296875 L 4.984375 -9.296875 L 8.25 -0.828125 C 8.34375 -0.566406 8.445312 -0.382812 8.5625 -0.28125 C 8.675781 -0.175781 8.828125 -0.125 9.015625 -0.125 L 9.1875 -0.125 L 9.1875 0 L 5.609375 0 L 5.609375 -0.125 L 5.90625 -0.125 C 6.226562 -0.125 6.460938 -0.160156 6.609375 -0.234375 C 6.765625 -0.316406 6.84375 -0.460938 6.84375 -0.671875 C 6.84375 -0.734375 6.832031 -0.8125 6.8125 -0.90625 C 6.800781 -1.007812 6.769531 -1.117188 6.71875 -1.234375 L 5.921875 -3.375 L 2.390625 -3.375 L 1.6875 -1.328125 C 1.601562 -1.097656 1.5625 -0.910156 1.5625 -0.765625 C 1.5625 -0.535156 1.664062 -0.367188 1.875 -0.265625 C 2.082031 -0.171875 2.414062 -0.125 2.875 -0.125 L 3.171875 -0.125 L 3.171875 0 Z M 2.4375 -3.5 L 5.875 -3.5 L 4.921875 -6.046875 C 4.585938 -6.921875 4.320312 -7.703125 4.125 -8.390625 C 4.03125 -8.128906 3.953125 -7.898438 3.890625 -7.703125 C 3.828125 -7.503906 3.757812 -7.289062 3.6875 -7.0625 C 3.613281 -6.84375 3.519531 -6.578125 3.40625 -6.265625 Z M 2.4375 -3.5 "/></g></g></g><g fill="rgb(12.159729%, 12.939453%, 13.328552%)" fill-opacity="1"><g transform="translate(163.795237, 192.113279)"><g><path d="M 0.5 0 L 0.5 -0.125 L 0.671875 -0.125 C 1.378906 -0.125 1.734375 -0.4375 1.734375 -1.0625 L 1.734375 -8.28125 C 1.734375 -8.875 1.378906 -9.171875 0.671875 -9.171875 L 0.5 -9.171875 L 0.5 -9.296875 L 4.484375 -9.296875 C 5.816406 -9.296875 6.859375 -8.890625 7.609375 -8.078125 C 8.359375 -7.273438 8.734375 -6.140625 8.734375 -4.671875 C 8.734375 -3.710938 8.570312 -2.882812 8.25 -2.1875 C 7.9375 -1.488281 7.460938 -0.945312 6.828125 -0.5625 C 6.203125 -0.1875 5.421875 0 4.484375 0 Z M 3.046875 -0.125 L 4.1875 -0.125 C 5.269531 -0.125 6.054688 -0.484375 6.546875 -1.203125 C 7.035156 -1.921875 7.28125 -3.078125 7.28125 -4.671875 C 7.28125 -6.242188 7.035156 -7.382812 6.546875 -8.09375 C 6.054688 -8.8125 5.273438 -9.171875 4.203125 -9.171875 L 3.046875 -9.171875 Z M 3.046875 -0.125 "/></g></g></g><g fill="rgb(12.159729%, 12.939453%, 13.328552%)" fill-opacity="1"><g transform="translate(178.158035, 192.113279)"><g><path d="M 0.5 0 L 0.5 -0.125 L 0.671875 -0.125 C 1.378906 -0.125 1.734375 -0.4375 1.734375 -1.0625 L 1.734375 -8.28125 C 1.734375 -8.875 1.378906 -9.171875 0.671875 -9.171875 L 0.5 -9.171875 L 0.5 -9.296875 L 4 -9.296875 C 5.125 -9.296875 5.960938 -9.085938 6.515625 -8.671875 C 7.066406 -8.253906 7.34375 -7.65625 7.34375 -6.875 C 7.34375 -6.351562 7.238281 -5.929688 7.03125 -5.609375 C 6.832031 -5.296875 6.570312 -5.046875 6.25 -4.859375 C 5.9375 -4.679688 5.613281 -4.539062 5.28125 -4.4375 L 7.109375 -1.578125 C 7.472656 -1.023438 7.757812 -0.644531 7.96875 -0.4375 C 8.175781 -0.226562 8.382812 -0.125 8.59375 -0.125 L 8.625 -0.125 L 8.625 0 L 8.4375 0 C 8.03125 0 7.691406 -0.015625 7.421875 -0.046875 C 7.160156 -0.078125 6.941406 -0.128906 6.765625 -0.203125 C 6.597656 -0.285156 6.445312 -0.398438 6.3125 -0.546875 C 6.175781 -0.703125 6.03125 -0.898438 5.875 -1.140625 L 3.875 -4.34375 L 3.046875 -4.34375 L 3.046875 -1.0625 C 3.046875 -0.4375 3.40625 -0.125 4.125 -0.125 L 4.28125 -0.125 L 4.28125 0 Z M 3.046875 -4.46875 L 3.96875 -4.46875 C 4.6875 -4.46875 5.195312 -4.644531 5.5 -5 C 5.800781 -5.351562 5.953125 -5.945312 5.953125 -6.78125 C 5.953125 -7.632812 5.796875 -8.242188 5.484375 -8.609375 C 5.171875 -8.984375 4.65625 -9.171875 3.9375 -9.171875 L 3.046875 -9.171875 Z M 3.046875 -4.46875 "/></g></g></g><g fill="rgb(12.159729%, 12.939453%, 13.328552%)" fill-opacity="1"><g transform="translate(191.595612, 192.113279)"><g><path d="M 0.5 0 L 0.5 -0.125 L 0.671875 -0.125 C 1.378906 -0.125 1.734375 -0.4375 1.734375 -1.0625 L 1.734375 -8.28125 C 1.734375 -8.875 1.378906 -9.171875 0.671875 -9.171875 L 0.5 -9.171875 L 0.5 -9.296875 L 4.28125 -9.296875 L 4.28125 -9.171875 L 4.125 -9.171875 C 3.40625 -9.171875 3.046875 -8.859375 3.046875 -8.234375 L 3.046875 -1.0625 C 3.046875 -0.4375 3.40625 -0.125 4.125 -0.125 L 4.28125 -0.125 L 4.28125 0 Z M 0.5 0 "/></g></g></g><g fill="rgb(12.159729%, 12.939453%, 13.328552%)" fill-opacity="1"><g transform="translate(201.267157, 192.113279)"><g><path d="M 0 0 L 0 -0.125 L 0.375 -0.125 C 0.65625 -0.125 0.875 -0.195312 1.03125 -0.34375 C 1.195312 -0.5 1.34375 -0.765625 1.46875 -1.140625 L 4.3125 -9.296875 L 4.984375 -9.296875 L 8.25 -0.828125 C 8.34375 -0.566406 8.445312 -0.382812 8.5625 -0.28125 C 8.675781 -0.175781 8.828125 -0.125 9.015625 -0.125 L 9.1875 -0.125 L 9.1875 0 L 5.609375 0 L 5.609375 -0.125 L 5.90625 -0.125 C 6.226562 -0.125 6.460938 -0.160156 6.609375 -0.234375 C 6.765625 -0.316406 6.84375 -0.460938 6.84375 -0.671875 C 6.84375 -0.734375 6.832031 -0.8125 6.8125 -0.90625 C 6.800781 -1.007812 6.769531 -1.117188 6.71875 -1.234375 L 5.921875 -3.375 L 2.390625 -3.375 L 1.6875 -1.328125 C 1.601562 -1.097656 1.5625 -0.910156 1.5625 -0.765625 C 1.5625 -0.535156 1.664062 -0.367188 1.875 -0.265625 C 2.082031 -0.171875 2.414062 -0.125 2.875 -0.125 L 3.171875 -0.125 L 3.171875 0 Z M 2.4375 -3.5 L 5.875 -3.5 L 4.921875 -6.046875 C 4.585938 -6.921875 4.320312 -7.703125 4.125 -8.390625 C 4.03125 -8.128906 3.953125 -7.898438 3.890625 -7.703125 C 3.828125 -7.503906 3.757812 -7.289062 3.6875 -7.0625 C 3.613281 -6.84375 3.519531 -6.578125 3.40625 -6.265625 Z M 2.4375 -3.5 "/></g></g></g><g fill="rgb(12.159729%, 12.939453%, 13.328552%)" fill-opacity="1"><g transform="translate(215.343268, 192.113279)"><g><path d="M 0.5 0 L 0.5 -0.125 L 0.875 -0.125 C 1.582031 -0.125 1.9375 -0.4375 1.9375 -1.0625 L 1.9375 -8.28125 C 1.9375 -8.875 1.582031 -9.171875 0.875 -9.171875 L 0.5 -9.171875 L 0.5 -9.296875 L 3.03125 -9.296875 L 8 -1.859375 L 8 -8.234375 C 8 -8.859375 7.644531 -9.171875 6.9375 -9.171875 L 6.5625 -9.171875 L 6.5625 -9.296875 L 9.578125 -9.296875 L 9.578125 -9.171875 L 9.203125 -9.171875 C 8.484375 -9.171875 8.125 -8.859375 8.125 -8.234375 L 8.125 0 L 7.734375 0 L 2.078125 -8.5 L 2.078125 -1.0625 C 2.078125 -0.4375 2.429688 -0.125 3.140625 -0.125 L 3.5 -0.125 L 3.5 0 Z M 0.5 0 "/></g></g></g></svg>